<svg width="63" height="18" viewBox="0 0 63 18" fill="none" xmlns="http://www.w3.org/2000/svg">
<path d="M58.5745 1.23865H54.6682C53.4467 1.23865 52.5276 1.52827 52.0075 2.55229L44.5093 17.1265H49.8306C49.8306 17.1265 50.7135 15.1716 50.8949 14.7578H57.3772C57.5345 15.306 57.994 17.1265 57.994 17.1265H62.6986L58.5745 1.23865ZM52.3462 11.4996C52.7573 10.5893 54.3295 7.04144 54.3295 7.04144C54.3295 7.04144 54.7649 6.11051 55.0189 5.54161L55.3575 6.90697C55.3575 6.90697 56.3371 10.6928 56.5306 11.4996H52.3462Z" fill="white"/>
<path d="M37.7605 5.65543C37.7484 6.38983 38.8489 6.88633 40.6146 7.62073C43.5293 8.75853 44.8838 10.1239 44.8475 11.9444C44.8233 15.244 41.3645 17.3748 36.0552 17.3748C33.7816 17.3541 31.6046 16.9611 30.4194 16.5266L31.133 12.9684L31.774 13.2167C33.4308 13.8062 34.5193 14.0545 36.539 14.0545C37.9903 14.0545 39.5504 13.5683 39.5746 12.5029C39.5867 11.7996 38.9094 11.3031 36.9502 10.5273C35.0151 9.77221 32.4754 8.49994 32.5117 6.22434C32.5359 3.14193 36.0673 0.969757 41.0621 0.969757C43.0213 0.969757 44.6056 1.32144 45.5973 1.64209L44.908 5.07619L44.4484 4.90035C43.5051 4.57969 42.3078 4.27973 40.6509 4.29007C38.6796 4.27973 37.7605 4.99344 37.7605 5.65543Z" fill="white"/>
<path d="M30.3954 1.24902L27.2388 17.1265H22.1836L22.8004 14.0441L23.8042 8.97574L25.328 1.25937L30.3954 1.24902Z" fill="white"/>
<path d="M12.2306 9.43087C10.5375 5.75887 6.49807 2.70749 0.390625 1.44556L0.451098 1.12491H8.30008C9.36435 1.16628 10.223 1.44556 10.5133 2.41787L12.2306 9.43087Z" fill="white"/>
<path d="M23.2842 1.26971L15.3143 17.1162H9.96882L5.43359 3.87632C8.68686 5.66577 11.4564 8.49993 12.436 10.4652L12.9681 12.1099L17.9266 1.26971H23.2842Z" fill="white"/>
</svg>
